HIERARCHY
ROOT hips
{
	OFFSET -0.003675 0.299928 -0.021708
	CHANNELS 6 Xposition Yposition Zposition Xrotation Yrotation Zrotation
	JOINT LowerBack
	{
		OFFSET 0.000919 0.177588 0.009275
		CHANNELS 3 Xrotation Yrotation Zrotation
		JOINT spine
		{
			OFFSET 0.000919 0.177588 0.009275
			CHANNELS 3 Xrotation Yrotation Zrotation
			JOINT chest
			{
				OFFSET 0.000456 0.100015 0.004638
				CHANNELS 3 Xrotation Yrotation Zrotation
				JOINT neck
				{
					OFFSET 0.000456 0.100015 0.004638
					CHANNELS 3 Xrotation Yrotation Zrotation
					JOINT head
					{
						OFFSET 0.000924 0.155147 0.009274
						CHANNELS 6 Xposition Yposition Zposition Xrotation Yrotation Zrotation
						End Site
						{
							OFFSET 0.000000 0.153400 0.000000
						}
					}
				}
				JOINT shoulder.L
				{
					OFFSET 0.019937 0.078966 0.057518
					CHANNELS 6 Xposition Yposition Zposition Yrotation Xrotation Zrotation
					JOINT upper_arm.L
					{
						OFFSET 0.177024 -0.020465 -0.095062
						CHANNELS 6 Xposition Yposition Zposition Xrotation Yrotation Zrotation
						JOINT forearm.L
						{
							OFFSET 0.247100 -0.135500 -0.061800
							CHANNELS 3 Xrotation Yrotation Zrotation
							JOINT hand.L
							{
								OFFSET 0.217000 -0.143000 0.039300
								CHANNELS 3 Xrotation Yrotation Zrotation
								JOINT palm.01.L
								{
									OFFSET 0.021770 -0.038291 0.012954
									CHANNELS 6 Xposition Yposition Zposition Yrotation Xrotation Zrotation
									JOINT f_index.01.L
									{
										OFFSET 0.053215 -0.044137 0.008236
										CHANNELS 3 Xrotation Yrotation Zrotation
										JOINT f_index.02.L
										{
											OFFSET 0.036108 -0.024723 -0.010656
											CHANNELS 3 Xrotation Yrotation Zrotation
											JOINT f_index.03.L
											{
												OFFSET 0.021342 -0.014948 -0.010846
												CHANNELS 3 Xrotation Yrotation Zrotation
												End Site
												{
													OFFSET 0.015600 -0.009860 -0.013421
												}
											}
										}
									}
									JOINT thumb.01.L
									{
										OFFSET -0.009090 -0.002348 -0.024223
										CHANNELS 6 Xposition Yposition Zposition Xrotation Yrotation Zrotation
										JOINT thumb.02.L
										{
											OFFSET 0.019713 -0.035076 -0.011120
											CHANNELS 3 Xrotation Yrotation Zrotation
											JOINT thumb.03.L
											{
												OFFSET 0.024877 -0.021748 -0.005176
												CHANNELS 3 Xrotation Yrotation Zrotation
												End Site
												{
													OFFSET 0.016125 -0.013029 -0.001569
												}
											}
										}
									}
								}
								JOINT palm.02.L
								{
									OFFSET 0.032823 -0.025104 0.012281
									CHANNELS 6 Xposition Yposition Zposition Yrotation Xrotation Zrotation
									JOINT f_middle.01.L
									{
										OFFSET 0.055723 -0.038469 0.008037
										CHANNELS 3 Xrotation Yrotation Zrotation
										JOINT f_middle.02.L
										{
											OFFSET 0.038167 -0.027473 -0.015582
											CHANNELS 3 Xrotation Yrotation Zrotation
											JOINT f_middle.03.L
											{
												OFFSET 0.021707 -0.016587 -0.017037
												CHANNELS 3 Xrotation Yrotation Zrotation
												End Site
												{
													OFFSET 0.014112 -0.010584 -0.014294
												}
											}
										}
									}
								}
								JOINT palm.03.L
								{
									OFFSET 0.039230 -0.011402 0.008390
									CHANNELS 6 Xposition Yposition Zposition Yrotation Xrotation Zrotation
									JOINT f_ring.01.L
									{
										OFFSET 0.061796 -0.031470 0.007910
										CHANNELS 3 Xrotation Yrotation Zrotation
										JOINT f_ring.02.L
										{
											OFFSET 0.033092 -0.023401 -0.019127
											CHANNELS 3 Xrotation Yrotation Zrotation
											JOINT f_ring.03.L
											{
												OFFSET 0.021392 -0.015362 -0.017824
												CHANNELS 3 Xrotation Yrotation Zrotation
												End Site
												{
													OFFSET 0.008670 -0.007297 -0.014686
												}
											}
										}
									}
								}
								JOINT palm.04.L
								{
									OFFSET 0.043417 0.002450 0.002889
									CHANNELS 6 Xposition Yposition Zposition Yrotation Xrotation Zrotation
									JOINT f_pinky.01.L
									{
										OFFSET 0.069986 -0.026156 0.003627
										CHANNELS 3 Xrotation Yrotation Zrotation
										JOINT f_pinky.02.L
										{
											OFFSET 0.018520 -0.012813 -0.016429
											CHANNELS 3 Xrotation Yrotation Zrotation
											JOINT f_pinky.03.L
											{
												OFFSET 0.013822 -0.009796 -0.014947
												CHANNELS 3 Xrotation Yrotation Zrotation
												End Site
												{
													OFFSET 0.007238 -0.006103 -0.011657
												}
											}
										}
									}
								}
							}
						}
					}
				}
				JOINT shoulder.R
				{
					OFFSET -0.016662 0.078957 0.057696
					CHANNELS 6 Xposition Yposition Zposition Yrotation Xrotation Zrotation
					JOINT upper_arm.R
					{
						OFFSET -0.176972 -0.020537 -0.095144
						CHANNELS 6 Xposition Yposition Zposition Xrotation Yrotation Zrotation
						JOINT forearm.R
						{
							OFFSET -0.247100 -0.135500 -0.061800
							CHANNELS 3 Xrotation Yrotation Zrotation
							JOINT hand.R
							{
								OFFSET -0.217000 -0.143000 0.039300
								CHANNELS 3 Xrotation Yrotation Zrotation
								JOINT palm.01.R
								{
									OFFSET -0.021773 -0.038278 0.012988
									CHANNELS 6 Xposition Yposition Zposition Yrotation Xrotation Zrotation
									JOINT f_index.01.R
									{
										OFFSET -0.053212 -0.044139 0.008249
										CHANNELS 3 Xrotation Yrotation Zrotation
										JOINT f_index.02.R
										{
											OFFSET -0.036049 -0.024835 -0.010634
											CHANNELS 3 Xrotation Yrotation Zrotation
											JOINT f_index.03.R
											{
												OFFSET -0.021371 -0.014881 -0.010866
												CHANNELS 3 Xrotation Yrotation Zrotation
												End Site
												{
													OFFSET -0.015584 -0.009883 -0.013422
												}
											}
										}
									}
									JOINT thumb.01.R
									{
										OFFSET 0.009113 -0.002381 -0.024211
										CHANNELS 6 Xposition Yposition Zposition Xrotation Yrotation Zrotation
										JOINT thumb.02.R
										{
											OFFSET -0.019694 -0.035097 -0.011088
											CHANNELS 3 Xrotation Yrotation Zrotation
											JOINT thumb.03.R
											{
												OFFSET -0.024867 -0.021762 -0.005168
												CHANNELS 3 Xrotation Yrotation Zrotation
												End Site
												{
													OFFSET -0.016120 -0.013036 -0.001565
												}
											}
										}
									}
								}
								JOINT palm.02.R
								{
									OFFSET -0.032828 -0.025095 0.012286
									CHANNELS 6 Xposition Yposition Zposition Yrotation Xrotation Zrotation
									JOINT f_middle.01.R
									{
										OFFSET -0.055721 -0.038472 0.008040
										CHANNELS 3 Xrotation Yrotation Zrotation
										JOINT f_middle.02.R
										{
											OFFSET -0.038101 -0.027593 -0.015557
											CHANNELS 3 Xrotation Yrotation Zrotation
											JOINT f_middle.03.R
											{
												OFFSET -0.021730 -0.016530 -0.017054
												CHANNELS 3 Xrotation Yrotation Zrotation
												End Site
												{
													OFFSET -0.014096 -0.010608 -0.014293
												}
											}
										}
									}
								}
								JOINT palm.03.R
								{
									OFFSET -0.039192 -0.011488 0.008390
									CHANNELS 6 Xposition Yposition Zposition Yrotation Xrotation Zrotation
									JOINT f_ring.01.R
									{
										OFFSET -0.061839 -0.031387 0.007876
										CHANNELS 3 Xrotation Yrotation Zrotation
										JOINT f_ring.02.R
										{
											OFFSET -0.033068 -0.023437 -0.019125
											CHANNELS 3 Xrotation Yrotation Zrotation
											JOINT f_ring.03.R
											{
												OFFSET -0.021371 -0.015393 -0.017822
												CHANNELS 3 Xrotation Yrotation Zrotation
												End Site
												{
													OFFSET -0.008654 -0.007321 -0.014684
												}
											}
										}
									}
								}
								JOINT palm.04.R
								{
									OFFSET -0.043421 0.002443 0.002845
									CHANNELS 6 Xposition Yposition Zposition Yrotation Xrotation Zrotation
									JOINT f_pinky.01.R
									{
										OFFSET -0.069983 -0.026169 0.003599
										CHANNELS 3 Xrotation Yrotation Zrotation
										JOINT f_pinky.02.R
										{
											OFFSET -0.018501 -0.012842 -0.016428
											CHANNELS 3 Xrotation Yrotation Zrotation
											JOINT f_pinky.03.R
											{
												OFFSET -0.013806 -0.009821 -0.014946
												CHANNELS 3 Xrotation Yrotation Zrotation
												End Site
												{
													OFFSET -0.007226 -0.006121 -0.011655
												}
											}
										}
									}
								}
							}
						}
					}
				}
			}
		}
	}
	JOINT pelvis.L
	{
		OFFSET 0.000000 0.000000 0.000000
		CHANNELS 6 Xposition Yposition Zposition Xrotation Yrotation Zrotation
		JOINT thigh.L
		{
			OFFSET 0.101675 0.001054 -0.000000
			CHANNELS 3 Xrotation Yrotation Zrotation
			JOINT shin.L
			{
				OFFSET 0.000000 -0.534800 0.041000
				CHANNELS 3 Xrotation Yrotation Zrotation
				JOINT foot.L
				{
					OFFSET 0.000000 -0.452000 -0.044800
					CHANNELS 3 Xrotation Yrotation Zrotation
					JOINT toe.L
					{
						OFFSET -0.000000 -0.068500 0.109600
						CHANNELS 3 Xrotation Yrotation Zrotation
						End Site
						{
							OFFSET -0.000000 0.000000 0.067200
						}
					}
				}
				JOINT heel.L
				{
					OFFSET 0.000000 -0.452000 -0.044800
					CHANNELS 3 Xrotation Yrotation Zrotation
					JOINT heel.02.L
					{
						OFFSET -0.038000 -0.085200 0.016200
						CHANNELS 6 Xposition Yposition Zposition Xrotation Yrotation Zrotation
						End Site
						{
							OFFSET 0.080000 -0.000000 0.000000
						}
					}
				}
			}
		}
	}
	JOINT pelvis.R
	{
		OFFSET 0.000000 0.000000 0.000000
		CHANNELS 6 Xposition Yposition Zposition Xrotation Yrotation Zrotation
		JOINT thigh.R
		{
			OFFSET -0.094325 0.001054 0.000000
			CHANNELS 3 Xrotation Yrotation Zrotation
			JOINT shin.R
			{
				OFFSET 0.000000 -0.534800 0.041000
				CHANNELS 3 Xrotation Yrotation Zrotation
				JOINT foot.R
				{
					OFFSET 0.000000 -0.452000 -0.044800
					CHANNELS 3 Xrotation Yrotation Zrotation
					JOINT toe.R
					{
						OFFSET -0.000000 -0.068500 0.109600
						CHANNELS 3 Xrotation Yrotation Zrotation
						End Site
						{
							OFFSET -0.000000 0.000000 0.067200
						}
					}
				}
				JOINT heel.R
				{
					OFFSET 0.000000 -0.452000 -0.044800
					CHANNELS 3 Xrotation Yrotation Zrotation
					JOINT heel.02.R
					{
						OFFSET 0.038000 -0.085200 0.016200
						CHANNELS 6 Xposition Yposition Zposition Xrotation Yrotation Zrotation
						End Site
						{
							OFFSET -0.080000 0.000000 -0.000000
						}
					}
				}
			}
		}
	}
}
MOTION
Frames: 4
Frame Time: 0.041667
-0.004897 0.280593 -0.017685 -5.709902 -2.894278 -5.987655 -0.000000 0.000000 -0.000001 0.000000 -0.000000 -0.000000 0.000000 0.000000 0.000000 0.000000 -0.000000 -0.000001 0.000924 0.155147 0.009274 16.995425 -0.015888 4.395054 0.019937 0.078966 0.057518 0.262943 10.300753 49.927467 0.177024 -0.020465 -0.095062 12.661759 -29.029363 40.731078 -24.334156 23.695149 -264.548499 0.000001 0.000003 -0.000001 0.021771 -0.038291 0.012954 -0.000001 -0.000000 -0.000004 -0.000005 0.000001 -0.000000 -0.000005 0.000001 0.000010 -0.000002 0.000001 -0.000003 -0.009090 -0.002348 -0.024223 -0.000002 -0.000002 -0.000003 -0.000003 0.000003 0.000005 -0.000003 0.000003 -0.000002 0.032823 -0.025104 0.012281 -0.000000 -0.000000 -0.000001 -0.000002 -0.000003 -0.000004 -0.000009 -0.000002 0.000003 0.000001 0.000001 0.000003 0.039230 -0.011402 0.008390 -0.000000 0.000001 0.000001 0.000000 0.000004 0.000001 -0.000003 0.000006 0.000001 0.000003 -0.000001 0.000004 0.043418 0.002450 0.002889 -0.000004 -0.000000 -0.000002 0.000000 -0.000000 -0.000005 0.000001 0.000001 -0.000005 0.000001 -0.000001 -0.000001 -0.016662 0.078957 0.057696 -7.016986 10.659289 -48.309539 -0.176972 -0.020537 -0.095144 7.615507 26.571480 -34.531490 161.704087 -157.585701 453.357221 -0.000000 -0.000001 0.000004 -0.021773 -0.038278 0.012988 -0.000000 0.000002 -0.000003 -0.000004 0.000001 0.000001 -0.000003 -0.000002 -0.000003 0.000004 0.000005 -0.000002 0.009114 -0.002381 -0.024212 -0.000001 -0.000001 0.000003 0.000001 -0.000002 0.000000 -0.000000 -0.000001 -0.000004 -0.032828 -0.025095 0.012286 0.000002 -0.000000 0.000002 0.000003 0.000001 -0.000003 -0.000000 0.000003 -0.000007 0.000002 0.000006 -0.000005 -0.039192 -0.011488 0.008390 0.000000 0.000003 -0.000000 0.000001 0.000006 -0.000003 -0.000000 -0.000004 -0.000000 -0.000001 0.000003 -0.000006 -0.043421 0.002442 0.002845 0.000000 0.000001 0.000004 0.000001 0.000005 -0.000001 -0.000000 -0.000005 0.000000 0.000000 0.000002 -0.000002 0.000000 0.000000 -0.000000 -1.193039 -0.221208 1.971362 7.106906 -0.121089 -1.686497 19.468921 0.681853 -6.894273 -0.000002 -0.000000 0.000001 0.000002 -0.000001 -0.000002 0.000002 -0.000000 0.000001 -0.038000 -0.085200 0.016200 0.000005 0.000002 0.000001 0.000000 -0.000000 0.000000 -1.173363 -0.220324 3.205608 -1.567867 0.035688 0.064473 67.955239 -2.011394 20.754213 0.000002 0.000001 -0.000000 -0.000000 -0.000002 0.000001 0.000005 -0.000002 0.000003 0.038000 -0.085200 0.016200 -0.000001 -0.000001 0.000003 
-0.006434 0.284189 -0.012586 -3.465475 4.461827 -3.918827 -0.000000 0.000000 0.000000 -0.000000 0.000001 0.000000 0.000000 -0.000000 -0.000000 0.000000 0.000000 0.000000 0.000924 0.155148 0.009274 9.998031 -0.010073 2.773044 0.019937 0.078966 0.057518 -2.936157 10.730780 51.399766 0.177024 -0.020465 -0.095062 13.112870 -28.495607 41.105342 -17.770120 21.846867 -270.388966 -0.000001 -0.000001 -0.000000 0.021770 -0.038291 0.012954 0.000004 -0.000000 -0.000000 0.000003 -0.000004 -0.000001 -0.000002 0.000000 0.000004 -0.000003 0.000002 0.000002 -0.009090 -0.002348 -0.024224 0.000003 -0.000002 -0.000001 -0.000001 -0.000001 -0.000004 0.000003 -0.000002 -0.000004 0.032823 -0.025104 0.012281 0.000003 -0.000000 0.000005 -0.000002 0.000000 -0.000005 -0.000001 -0.000005 0.000003 -0.000001 0.000003 0.000003 0.039230 -0.011402 0.008390 0.000003 -0.000000 0.000001 -0.000001 0.000001 0.000001 0.000001 0.000001 -0.000001 -0.000004 -0.000006 0.000003 0.043417 0.002450 0.002889 -0.000000 0.000003 -0.000002 -0.000003 -0.000004 -0.000004 -0.000002 -0.000004 -0.000003 -0.000000 -0.000000 0.000002 -0.016662 0.078956 0.057696 -10.088049 11.279182 -48.065028 -0.176972 -0.020537 -0.095144 7.849200 25.058878 -34.706315 169.307180 -160.038258 466.896705 0.000000 0.000002 -0.000000 -0.021773 -0.038278 0.012988 -0.000000 0.000000 0.000002 -0.000001 0.000001 -0.000001 -0.000000 -0.000002 -0.000001 -0.000002 0.000002 0.000005 0.009114 -0.002381 -0.024212 0.000000 -0.000002 0.000002 0.000001 -0.000003 0.000000 0.000001 0.000001 -0.000006 -0.032828 -0.025095 0.012286 0.000001 0.000001 -0.000001 -0.000001 0.000000 -0.000001 0.000001 -0.000001 -0.000001 -0.000000 0.000000 -0.000000 -0.039192 -0.011487 0.008390 0.000002 0.000001 0.000005 -0.000001 0.000006 -0.000003 0.000001 0.000002 -0.000002 0.000003 0.000002 -0.000000 -0.043421 0.002443 0.002845 -0.000000 0.000000 0.000002 -0.000000 0.000004 0.000003 -0.000002 -0.000000 0.000003 -0.000002 0.000003 0.000003 -0.000000 0.000000 -0.000000 -1.130658 -0.252900 2.449214 8.231204 -0.480064 -6.429373 14.738923 0.087344 -0.879214 -0.000002 -0.000000 -0.000001 0.000000 0.000000 -0.000001 0.000000 -0.000000 -0.000001 -0.038000 -0.085200 0.016200 0.000001 0.000000 0.000001 0.000000 0.000000 0.000000 -1.113022 -0.251961 3.683474 2.587782 0.718521 9.282424 31.438784 -0.491253 4.963413 -0.000005 0.000001 0.000001 0.000001 0.000001 -0.000001 0.000002 -0.000001 0.000001 0.038000 -0.085200 0.016200 -0.000004 0.000001 0.000001 
-0.006237 0.282137 -0.015169 -4.449321 1.327912 -3.932114 -0.000000 0.000000 -0.000000 -0.000000 -0.000000 -0.000000 -0.000000 -0.000000 -0.000000 -0.000000 -0.000000 -0.000001 0.000924 0.155148 0.009274 8.610697 -0.008775 2.419942 0.019937 0.078966 0.057518 -1.519780 10.430667 50.720237 0.177024 -0.020465 -0.095062 12.374637 -28.346660 40.320799 -14.607519 20.573127 -273.828349 -0.000002 -0.000002 -0.000002 0.021771 -0.038291 0.012954 -0.000002 0.000003 -0.000001 -0.000001 -0.000002 0.000003 -0.000000 0.000001 0.000003 -0.000004 0.000004 0.000006 -0.009090 -0.002348 -0.024223 -0.000001 -0.000002 0.000004 0.000001 -0.000000 0.000001 -0.000000 -0.000001 -0.000002 0.032823 -0.025104 0.012281 -0.000001 0.000003 0.000005 -0.000001 -0.000003 -0.000005 0.000001 -0.000000 0.000007 -0.000001 0.000004 0.000004 0.039230 -0.011402 0.008390 -0.000001 0.000002 0.000003 -0.000004 0.000002 -0.000000 -0.000001 0.000004 0.000005 0.000001 0.000001 0.000001 0.043418 0.002449 0.002889 -0.000005 0.000001 -0.000003 -0.000006 -0.000001 -0.000000 -0.000002 0.000000 0.000001 0.000000 -0.000001 -0.000002 -0.016662 0.078957 0.057696 -7.691348 10.814358 -48.269486 -0.176972 -0.020537 -0.095144 6.310206 25.809902 -32.778979 171.271474 -162.423046 466.734966 0.000000 0.000002 0.000002 -0.021773 -0.038278 0.012988 -0.000001 0.000000 0.000000 -0.000001 0.000001 -0.000001 -0.000000 -0.000004 -0.000003 0.000002 -0.000001 0.000008 0.009114 -0.002381 -0.024211 0.000002 -0.000003 -0.000003 -0.000000 -0.000003 -0.000002 -0.000001 -0.000000 -0.000001 -0.032828 -0.025095 0.012286 0.000003 0.000002 0.000002 0.000001 0.000002 -0.000001 0.000002 -0.000000 -0.000001 -0.000001 0.000004 0.000001 -0.039192 -0.011487 0.008390 0.000001 0.000003 0.000003 -0.000002 0.000001 -0.000002 0.000002 -0.000000 -0.000000 -0.000004 -0.000001 -0.000000 -0.043421 0.002443 0.002844 -0.000000 0.000001 0.000004 0.000000 0.000001 0.000003 -0.000005 -0.000003 0.000000 0.000002 0.000000 0.000002 -0.000000 0.000000 -0.000000 -1.175177 -0.243639 2.289763 4.772188 -0.454662 -5.933329 18.891654 0.263736 -2.659816 -0.000003 -0.000001 -0.000001 0.000000 0.000000 0.000000 -0.000002 -0.000000 -0.000002 -0.038000 -0.085200 0.016200 0.000002 -0.000001 0.000000 -0.000000 0.000000 -0.000000 -1.156441 -0.242693 3.524008 -0.055187 0.559358 7.015806 41.592270 -0.914097 9.264526 0.000000 -0.000000 0.000001 -0.000001 0.000002 -0.000002 0.000003 -0.000000 0.000000 0.038000 -0.085200 0.016200 0.000004 -0.000001 0.000001 
-0.006075 0.277641 -0.015494 -6.842212 -5.015450 -5.580678 0.000000 -0.000000 -0.000000 -0.000001 -0.000001 -0.000000 -0.000000 -0.000000 0.000000 0.000001 -0.000000 0.000000 0.000924 0.155147 0.009274 16.110468 -0.014949 2.848343 0.019937 0.078966 0.057518 1.158428 10.542793 51.110961 0.177024 -0.020465 -0.095062 11.732297 -30.960230 39.522961 -20.333284 25.161556 -274.816978 -0.000002 -0.000002 -0.000002 0.021770 -0.038291 0.012954 0.000001 -0.000001 -0.000002 -0.000001 0.000001 0.000005 0.000002 -0.000000 0.000005 -0.000000 0.000002 0.000002 -0.009090 -0.002348 -0.024223 0.000001 -0.000001 0.000004 -0.000000 -0.000000 0.000005 0.000000 0.000003 0.000003 0.032823 -0.025104 0.012281 -0.000002 -0.000000 0.000002 -0.000000 -0.000001 -0.000004 0.000003 -0.000003 0.000001 -0.000003 -0.000003 0.000003 0.039230 -0.011402 0.008390 0.000000 0.000001 0.000001 0.000002 0.000001 -0.000000 -0.000000 0.000005 -0.000001 0.000003 -0.000002 0.000003 0.043417 0.002450 0.002889 0.000001 -0.000002 -0.000005 -0.000000 -0.000013 -0.000003 0.000000 -0.000001 -0.000000 0.000004 0.000002 -0.000003 -0.016662 0.078957 0.057696 -8.431475 10.939992 -49.182522 -0.176972 -0.020537 -0.095144 7.304889 29.206504 -34.255127 166.454251 -159.087933 461.475611 -0.000002 0.000002 -0.000000 -0.021773 -0.038278 0.012988 -0.000000 -0.000000 -0.000002 -0.000004 0.000002 -0.000001 -0.000002 -0.000002 -0.000005 -0.000000 0.000001 -0.000000 0.009113 -0.002381 -0.024211 -0.000003 -0.000001 -0.000001 0.000001 -0.000002 0.000000 0.000001 0.000000 -0.000004 -0.032828 -0.025095 0.012286 0.000002 -0.000000 -0.000003 0.000002 0.000004 -0.000001 0.000005 -0.000005 0.000001 -0.000000 -0.000001 -0.000004 -0.039192 -0.011487 0.008390 -0.000002 0.000001 -0.000000 -0.000001 0.000004 0.000000 0.000000 -0.000003 -0.000000 -0.000005 -0.000003 -0.000002 -0.043421 0.002443 0.002845 -0.000000 -0.000001 0.000000 -0.000002 0.000004 0.000003 -0.000003 -0.000005 0.000002 0.000001 0.000000 -0.000003 0.000000 0.000000 -0.000000 -1.187040 -0.274023 2.696404 9.117788 -0.331305 -4.533244 9.308833 0.292511 -2.950466 -0.000003 -0.000000 0.000001 -0.000001 -0.000000 0.000001 -0.000005 -0.000002 -0.000000 -0.038000 -0.085200 0.016200 0.000002 -0.000000 0.000001 0.000000 0.000000 -0.000000 -1.168875 -0.272977 3.930664 3.991377 0.497810 6.458042 38.976358 -1.172343 11.916241 -0.000003 0.000000 0.000000 0.000002 -0.000000 0.000001 0.000003 -0.000000 0.000000 0.038000 -0.085200 0.016200 0.000001 -0.000001 0.000001 
